<svg xmlns="http://www.w3.org/2000/svg" width="17" height="16" viewBox="0 0 17 16" fill="none">
  <path d="M11.1434 13.3333V2.66667C11.1434 2.31305 11.0029 1.97391 10.7529 1.72386C10.5028 1.47381 10.1637 1.33333 9.81007 1.33333H7.14341C6.78979 1.33333 6.45065 1.47381 6.2006 1.72386C5.95055 1.97391 5.81007 2.31305 5.81007 2.66667V13.3333" stroke="#C2C2C2" stroke-linecap="round" stroke-linejoin="round"/>
  <path d="M13.8101 4H3.14341C2.40703 4 1.81007 4.59695 1.81007 5.33333V12C1.81007 12.7364 2.40703 13.3333 3.14341 13.3333H13.8101C14.5465 13.3333 15.1434 12.7364 15.1434 12V5.33333C15.1434 4.59695 14.5465 4 13.8101 4Z" stroke="#C2C2C2" stroke-linecap="round" stroke-linejoin="round"/>
</svg>